<?xml version="1.0" encoding="utf-8"?>
<!-- Generator: Adobe Illustrator 15.0.0, SVG Export Plug-In . SVG Version: 6.00 Build 0)  -->
<!DOCTYPE svg PUBLIC "-//W3C//DTD SVG 1.1//EN" "http://www.w3.org/Graphics/SVG/1.1/DTD/svg11.dtd">
<svg version="1.1" id="Layer_1" xmlns="http://www.w3.org/2000/svg" xmlns:xlink="http://www.w3.org/1999/xlink" x="0px" y="0px"
	 width="32px" height="32px" viewBox="0 0 32 32" enable-background="new 0 0 32 32" xml:space="preserve">
<linearGradient id="SVGID_1_" gradientUnits="userSpaceOnUse" x1="6.1621" y1="9.6348" x2="27.3502" y2="23.9363">
	<stop  offset="0" style="stop-color:#95C11F"/>
	<stop  offset="0.0707" style="stop-color:#81BA22"/>
	<stop  offset="0.2521" style="stop-color:#53AA29"/>
	<stop  offset="0.4258" style="stop-color:#2F9D2F"/>
	<stop  offset="0.5876" style="stop-color:#159433"/>
	<stop  offset="0.733" style="stop-color:#058F35"/>
	<stop  offset="0.8478" style="stop-color:#008D36"/>
</linearGradient>
<path fill="url(#SVGID_1_)" stroke="#B2B2B2" stroke-width="0.25" stroke-miterlimit="10" d="M14.583,28.469
	c-4.209,0-7.639-1.725-9.683-4.125C0.939,19.689,1.762,12.846,6.996,6.911c5.186-5.883,9.652-5.521,12.483-4.183
	c6.027,2.848,9.601,12.756,8.189,18.568l-1.929-0.423c1.244-5.125-1.996-14.03-7.143-16.462c-3.191-1.507-6.584-0.262-10.083,3.706
	c-4.599,5.217-5.413,11.123-2.072,15.044c2.77,3.256,8.665,4.988,15.585,1.516l0.924,1.664
	C19.966,27.837,17.132,28.469,14.583,28.469z"/>
<linearGradient id="SVGID_2_" gradientUnits="userSpaceOnUse" x1="17.4512" y1="18.3711" x2="25.8801" y2="26.3059">
	<stop  offset="0" style="stop-color:#95C11F"/>
	<stop  offset="0.0707" style="stop-color:#81BA22"/>
	<stop  offset="0.2521" style="stop-color:#53AA29"/>
	<stop  offset="0.4258" style="stop-color:#2F9D2F"/>
	<stop  offset="0.5876" style="stop-color:#159433"/>
	<stop  offset="0.733" style="stop-color:#058F35"/>
	<stop  offset="0.8478" style="stop-color:#008D36"/>
</linearGradient>
<polygon fill="url(#SVGID_2_)" stroke="#B2B2B2" stroke-width="0.25" stroke-miterlimit="10" points="29.587,21.58 18.011,18.553 
	21.177,30.092 "/>
</svg>
