<?xml version="1.0" encoding="utf-8"?>
<!-- Generator: Adobe Illustrator 15.0.0, SVG Export Plug-In . SVG Version: 6.00 Build 0)  -->
<!DOCTYPE svg PUBLIC "-//W3C//DTD SVG 1.1//EN" "http://www.w3.org/Graphics/SVG/1.1/DTD/svg11.dtd">
<svg version="1.1" id="Layer_1" xmlns="http://www.w3.org/2000/svg" xmlns:xlink="http://www.w3.org/1999/xlink" x="0px" y="0px"
	 width="72px" height="72px" viewBox="0 0 72 72" enable-background="new 0 0 72 72" xml:space="preserve">
<g>
	<radialGradient id="SVGID_1_" cx="23.541" cy="24.7769" r="34.4888" gradientUnits="userSpaceOnUse">
		<stop  offset="0.2292" style="stop-color:#95C11F"/>
		<stop  offset="0.5229" style="stop-color:#50A92A"/>
		<stop  offset="0.7938" style="stop-color:#169533"/>
		<stop  offset="0.9234" style="stop-color:#008D36"/>
	</radialGradient>
	<path fill="url(#SVGID_1_)" d="M3.999,70.5c-1.378,0-2.5-1.167-2.5-2.602V4.102c0-1.435,1.122-2.602,2.5-2.602H68
		c1.379,0,2.5,1.167,2.5,2.602v63.797c0,1.435-1.121,2.602-2.5,2.602H3.999z"/>
	<g>
		<path fill="#002D1D" d="M68,3c0.552,0,1,0.494,1,1.102v63.797C69,68.506,68.552,69,68,69H3.999c-0.551,0-1-0.494-1-1.102V4.102
			c0-0.607,0.449-1.102,1-1.102H68 M68,0H3.999c-2.209,0-4,1.837-4,4.102v63.797c0,2.266,1.791,4.102,4,4.102H68
			c2.209,0,4-1.836,4-4.102V4.102C72,1.837,70.209,0,68,0L68,0z"/>
	</g>
</g>
<linearGradient id="SVGID_2_" gradientUnits="userSpaceOnUse" x1="18.3662" y1="3.3687" x2="60.0459" y2="61.9608">
	<stop  offset="0" style="stop-color:#FFFFFF"/>
	<stop  offset="1" style="stop-color:#FFFFFF;stop-opacity:0"/>
</linearGradient>
<path opacity="0.7" fill="url(#SVGID_2_)" d="M0,56.314c0,0,2.667-47.104,72-39.256C72,11.212,72,0,72,0H0V56.314z"/>
<g>
	<g>
		<path fill="#FFFFFF" d="M56.728,27.914c-2.874,0-5.213-2.339-5.213-5.214s2.339-5.214,5.213-5.214s5.212,2.339,5.212,5.214
			S59.602,27.914,56.728,27.914z"/>
		<path fill="#002D1D" d="M56.728,17.986c2.605,0,4.712,2.113,4.712,4.714c0,2.604-2.106,4.714-4.712,4.714
			c-2.601,0-4.713-2.109-4.713-4.714C52.015,20.1,54.127,17.986,56.728,17.986 M56.728,16.986c-3.15,0-5.713,2.563-5.713,5.714
			s2.562,5.714,5.713,5.714c3.149,0,5.712-2.563,5.712-5.714S59.877,16.986,56.728,16.986L56.728,16.986z"/>
	</g>
	<g>
		<path fill="#FFFFFF" d="M34.673,39.111c-2.875,0-5.213-2.339-5.213-5.214c0-2.874,2.339-5.212,5.213-5.212
			c2.875,0,5.214,2.338,5.214,5.212C39.887,36.772,37.548,39.111,34.673,39.111z"/>
		<path fill="#002D1D" d="M34.673,29.186c2.605,0,4.714,2.113,4.714,4.712c0,2.606-2.108,4.714-4.714,4.714
			c-2.6,0-4.713-2.107-4.713-4.714C29.959,31.299,32.073,29.186,34.673,29.186 M34.673,28.186c-3.15,0-5.713,2.562-5.713,5.712
			c0,3.15,2.563,5.714,5.713,5.714s5.714-2.563,5.714-5.714C40.387,30.748,37.823,28.186,34.673,28.186L34.673,28.186z"/>
	</g>
	<g>
		<path fill="#FFFFFF" d="M22.743,61.148c-2.875,0-5.213-2.339-5.213-5.213s2.339-5.213,5.213-5.213
			c2.874,0,5.212,2.339,5.212,5.213S25.617,61.148,22.743,61.148z"/>
		<path fill="#002D1D" d="M22.743,51.223c2.605,0,4.712,2.113,4.712,4.713c0,2.605-2.107,4.713-4.712,4.713
			c-2.601,0-4.713-2.107-4.713-4.713C18.029,53.336,20.142,51.223,22.743,51.223 M22.743,50.223c-3.15,0-5.713,2.562-5.713,5.713
			s2.563,5.713,5.713,5.713c3.15,0,5.712-2.562,5.712-5.713S25.893,50.223,22.743,50.223L22.743,50.223z"/>
	</g>
	<g>
		<g>
			<polygon fill="#FFFFFF" points="37.282,40.892 41.495,36.935 45.135,41.354 41.469,44.798 			"/>
			<path fill="#002D1D" d="M41.448,37.664l3.003,3.646l-2.983,2.803l-3.454-3.223L41.448,37.664 M41.542,36.204l-0.778,0.731
				l-3.435,3.227l-0.779,0.731l0.781,0.729l3.454,3.223l0.685,0.639l0.683-0.642l2.983-2.803l0.683-0.641l-0.596-0.724l-3.003-3.646
				L41.542,36.204L41.542,36.204z"/>
		</g>
		<g>
			<polygon fill="#FFFFFF" points="44.193,47.334 47.499,44.225 52.642,50.47 50.108,52.847 			"/>
			<path fill="#002D1D" d="M47.452,44.955l4.506,5.471l-1.851,1.736l-5.183-4.83L47.452,44.955 M47.545,43.495l-0.778,0.731
				l-2.527,2.377l-0.777,0.731l0.781,0.729l5.183,4.83l0.684,0.638l0.683-0.64l1.851-1.736l0.684-0.642l-0.597-0.724l-4.506-5.471
				L47.545,43.495L47.545,43.495z"/>
		</g>
		<g>
			<polygon fill="#FFFFFF" points="54.559,56.995 56.506,55.169 63.152,63.235 62.2,64.118 			"/>
			<path fill="#002D1D" d="M56.459,55.898l6.008,7.291l-0.266,0.246l-6.91-6.441L56.459,55.898 M56.553,54.439l-0.778,0.729
				l-1.168,1.096l-0.779,0.731l0.782,0.729l6.91,6.441l0.68,0.634l0.682-0.632l0.266-0.246l0.692-0.642l-0.601-0.728l-6.008-7.291
				L56.553,54.439L56.553,54.439z"/>
		</g>
	</g>
	<g>
		<polygon fill="#FFFFFF" points="56.092,32.323 61.832,31.329 62.226,37.057 57.651,37.854 		"/>
		<path fill="#002D1D" d="M61.371,31.916l0.325,4.726l-3.687,0.642l-1.286-4.562L61.371,31.916 M62.293,30.742L61.2,30.931
			l-4.647,0.805l-1.093,0.189l0.301,1.067l1.286,4.562l0.245,0.868l0.89-0.154l3.687-0.642l0.888-0.154l-0.062-0.899l-0.325-4.726
			L62.293,30.742L62.293,30.742z"/>
	</g>
	<g>
		<polygon fill="#FFFFFF" points="58.664,41.448 62.487,40.783 63.048,48.875 60.862,49.253 		"/>
		<path fill="#002D1D" d="M62.026,41.371l0.491,7.088l-1.296,0.225l-1.926-6.838L62.026,41.371 M62.947,40.196l-1.092,0.189
			l-2.73,0.475l-1.092,0.189l0.3,1.067l1.926,6.838l0.245,0.868l0.889-0.154l1.296-0.225l0.889-0.154l-0.062-0.9l-0.491-7.088
			L62.947,40.196L62.947,40.196z"/>
	</g>
	<g>
		<g>
			<polygon fill="#FFFFFF" points="31.263,62.069 32.388,56.331 37.855,58.141 37.009,62.46 			"/>
			<path fill="#002D1D" d="M32.77,56.984l4.511,1.492l-0.677,3.455l-4.74-0.322L32.77,56.984 M32.006,55.679l-0.218,1.113
				l-0.907,4.625l-0.218,1.113l1.132,0.077l4.74,0.322l0.88,0.06l0.169-0.865l0.678-3.455l0.169-0.865l-0.836-0.276l-4.511-1.492
				L32.006,55.679L32.006,55.679z"/>
		</g>
		<g>
			<polygon fill="#FFFFFF" points="40.745,62.709 41.408,59.31 49.133,61.863 48.86,63.255 			"/>
			<path fill="#002D1D" d="M41.79,59.963l6.768,2.236l-0.104,0.527l-7.109-0.479L41.79,59.963 M41.025,58.657l-0.217,1.114
				l-0.445,2.285l-0.217,1.113l1.131,0.076l7.109,0.479l0.879,0.059l0.17-0.864l0.104-0.527l0.17-0.865l-0.838-0.276l-6.768-2.236
				L41.025,58.657L41.025,58.657z"/>
		</g>
	</g>
	<g>
		<path fill="#FFFFFF" d="M4.77,66.494v-0.5c0-33.97,27.637-61.607,61.606-61.607h0.5v5.715h-0.5
			c-30.819,0-55.893,25.073-55.893,55.893v0.5H4.77z"/>
		<path fill="#002D1D" d="M66.376,4.887v4.715c-31.096,0-56.393,25.296-56.393,56.393H5.27C5.27,32.301,32.682,4.887,66.376,4.887
			 M67.376,3.887h-1C32.13,3.887,4.27,31.748,4.27,65.994v1h1h4.714h1v-1c0-30.543,24.849-55.393,55.393-55.393h1v-1V4.887V3.887
			L67.376,3.887z"/>
	</g>
</g>
</svg>
