<?xml version="1.0" encoding="utf-8"?>
<!-- Generator: Adobe Illustrator 15.0.0, SVG Export Plug-In . SVG Version: 6.00 Build 0)  -->
<!DOCTYPE svg PUBLIC "-//W3C//DTD SVG 1.1//EN" "http://www.w3.org/Graphics/SVG/1.1/DTD/svg11.dtd">
<svg version="1.1" id="Layer_1" xmlns="http://www.w3.org/2000/svg" xmlns:xlink="http://www.w3.org/1999/xlink" x="0px" y="0px"
	 width="32px" height="32px" viewBox="0 0 32 32" enable-background="new 0 0 32 32" xml:space="preserve">
<linearGradient id="SVGID_1_" gradientUnits="userSpaceOnUse" x1="1.96" y1="6.6299" x2="32.2498" y2="26.972">
	<stop  offset="0" style="stop-color:#95C11F"/>
	<stop  offset="0.0707" style="stop-color:#81BA22"/>
	<stop  offset="0.2521" style="stop-color:#53AA29"/>
	<stop  offset="0.4258" style="stop-color:#2F9D2F"/>
	<stop  offset="0.5876" style="stop-color:#159433"/>
	<stop  offset="0.733" style="stop-color:#058F35"/>
	<stop  offset="0.8478" style="stop-color:#008D36"/>
</linearGradient>
<path fill="url(#SVGID_1_)" stroke="#B2B2B2" stroke-width="0.25" stroke-miterlimit="10" d="M16,29.062
	C8.797,29.062,2.938,23.202,2.938,16C2.938,8.797,8.797,2.938,16,2.938v3C10.452,5.938,5.938,10.451,5.938,16
	c0,5.548,4.514,10.062,10.062,10.062c5.549,0,10.063-4.514,10.063-10.062c0-2.911-1.262-5.678-3.459-7.592l1.971-2.262
	c2.852,2.482,4.488,6.074,4.488,9.854C29.062,23.202,23.203,29.062,16,29.062z"/>
<linearGradient id="SVGID_2_" gradientUnits="userSpaceOnUse" x1="13.0498" y1="14.1006" x2="19.4599" y2="18.2266">
	<stop  offset="0" style="stop-color:#95C11F"/>
	<stop  offset="0.0707" style="stop-color:#81BA22"/>
	<stop  offset="0.2521" style="stop-color:#53AA29"/>
	<stop  offset="0.4258" style="stop-color:#2F9D2F"/>
	<stop  offset="0.5876" style="stop-color:#159433"/>
	<stop  offset="0.733" style="stop-color:#058F35"/>
	<stop  offset="0.8478" style="stop-color:#008D36"/>
</linearGradient>
<circle fill="url(#SVGID_2_)" stroke="#B2B2B2" stroke-width="0.25" stroke-miterlimit="10" cx="16" cy="16" r="1.834"/>
</svg>
