<?xml version="1.0" encoding="utf-8"?>
<!-- Generator: Adobe Illustrator 15.0.0, SVG Export Plug-In . SVG Version: 6.00 Build 0)  -->
<!DOCTYPE svg PUBLIC "-//W3C//DTD SVG 1.1//EN" "http://www.w3.org/Graphics/SVG/1.1/DTD/svg11.dtd">
<svg version="1.1" id="Layer_1" xmlns="http://www.w3.org/2000/svg" xmlns:xlink="http://www.w3.org/1999/xlink" x="0px" y="0px"
	 width="32px" height="32px" viewBox="0 0 32 32" enable-background="new 0 0 32 32" xml:space="preserve">
<g>
	<linearGradient id="SVGID_1_" gradientUnits="userSpaceOnUse" x1="7.5923" y1="5.9849" x2="26.1764" y2="26.3616">
		<stop  offset="0" style="stop-color:#95C11F"/>
		<stop  offset="0.0707" style="stop-color:#81BA22"/>
		<stop  offset="0.2521" style="stop-color:#53AA29"/>
		<stop  offset="0.4258" style="stop-color:#2F9D2F"/>
		<stop  offset="0.5876" style="stop-color:#159433"/>
		<stop  offset="0.733" style="stop-color:#058F35"/>
		<stop  offset="0.8478" style="stop-color:#008D36"/>
	</linearGradient>
	<path fill="url(#SVGID_1_)" d="M4.923,29.52c-0.584,0-1.148-0.212-1.589-0.598c-1.001-0.877-1.103-2.406-0.227-3.407
		c0.068-0.078,0.151-0.16,0.228-0.227L20.29,10.44l-4.363-4.362l13.619-3.649l-3.649,13.619l-4.309-4.31L6.742,28.695
		C6.282,29.219,5.62,29.52,4.923,29.52z"/>
	<path fill="#B2B2B2" d="M29.369,2.605l-3.537,13.2l-4.25-4.251L6.647,28.613c-0.453,0.517-1.087,0.781-1.724,0.781
		c-0.535,0-1.072-0.187-1.506-0.566c-0.951-0.834-1.047-2.28-0.215-3.231c0.064-0.073,0.143-0.151,0.215-0.214l17.056-14.937
		l-4.304-4.304L29.369,2.605 M29.723,2.252l-0.418,0.112L16.104,5.901l-0.418,0.112l0.306,0.306l4.115,4.115L3.252,25.194
		c-0.08,0.069-0.167,0.155-0.238,0.237c-0.922,1.054-0.815,2.661,0.237,3.584c0.463,0.405,1.057,0.629,1.671,0.629
		c0.732,0,1.429-0.315,1.912-0.866L21.594,11.92l4.062,4.062l0.306,0.306l0.112-0.418l3.537-13.2L29.723,2.252L29.723,2.252z"/>
</g>
</svg>
