<?xml version="1.0" encoding="utf-8"?>
<!-- Generator: Adobe Illustrator 15.0.0, SVG Export Plug-In . SVG Version: 6.00 Build 0)  -->
<!DOCTYPE svg PUBLIC "-//W3C//DTD SVG 1.1//EN" "http://www.w3.org/Graphics/SVG/1.1/DTD/svg11.dtd">
<svg version="1.1" id="Layer_1" xmlns="http://www.w3.org/2000/svg" xmlns:xlink="http://www.w3.org/1999/xlink" x="0px" y="0px"
	 width="32px" height="32px" viewBox="0 0 32 32" enable-background="new 0 0 32 32" xml:space="preserve">
<linearGradient id="SVGID_1_" gradientUnits="userSpaceOnUse" x1="24.1201" y1="0.5493" x2="31.5831" y2="8.0655">
	<stop  offset="0" style="stop-color:#95C11F"/>
	<stop  offset="0.0707" style="stop-color:#81BA22"/>
	<stop  offset="0.2521" style="stop-color:#53AA29"/>
	<stop  offset="0.4258" style="stop-color:#2F9D2F"/>
	<stop  offset="0.5876" style="stop-color:#159433"/>
	<stop  offset="0.733" style="stop-color:#058F35"/>
	<stop  offset="0.8478" style="stop-color:#008D36"/>
</linearGradient>
<circle fill="url(#SVGID_1_)" stroke="#B2B2B2" stroke-width="0.25" stroke-miterlimit="10" cx="27.765" cy="4.22" r="2.531"/>
<g>
	<linearGradient id="SVGID_2_" gradientUnits="userSpaceOnUse" x1="5.7778" y1="10.2812" x2="21.9006" y2="27.9591">
		<stop  offset="0" style="stop-color:#95C11F"/>
		<stop  offset="0.0707" style="stop-color:#81BA22"/>
		<stop  offset="0.2521" style="stop-color:#53AA29"/>
		<stop  offset="0.4258" style="stop-color:#2F9D2F"/>
		<stop  offset="0.5876" style="stop-color:#159433"/>
		<stop  offset="0.733" style="stop-color:#058F35"/>
		<stop  offset="0.8478" style="stop-color:#008D36"/>
	</linearGradient>
	<path fill="url(#SVGID_2_)" d="M3.502,30.661c-0.508,0-0.999-0.186-1.382-0.521c-0.871-0.765-0.959-2.095-0.197-2.966
		c0.06-0.067,0.131-0.139,0.197-0.196l14.625-12.807l-3.775-3.776l11.815-3.165l-3.166,11.813l-3.729-3.728L5.086,29.943
		C4.686,30.399,4.109,30.661,3.502,30.661z"/>
	<g>
		<path fill="#B2B2B2" d="M24.608,7.408l-3.054,11.396l-3.67-3.669L4.992,29.861c-0.392,0.446-0.939,0.675-1.49,0.675
			c-0.461,0-0.925-0.161-1.299-0.489c-0.821-0.721-0.904-1.969-0.186-2.79c0.056-0.063,0.123-0.13,0.186-0.185l14.725-12.895
			l-3.716-3.717L24.608,7.408 M24.962,7.055l-0.418,0.112l-11.396,3.053l-0.418,0.112l0.306,0.306l3.527,3.528L2.039,26.884
			c-0.07,0.062-0.146,0.137-0.209,0.208c-0.808,0.924-0.714,2.333,0.208,3.143c0.406,0.355,0.926,0.552,1.464,0.552
			c0.642,0,1.253-0.277,1.678-0.76L17.896,15.5l3.481,3.48l0.307,0.306l0.111-0.418L24.85,7.473L24.962,7.055L24.962,7.055z"/>
	</g>
</g>
</svg>
