<?xml version="1.0" encoding="utf-8"?>
<!-- Generator: Adobe Illustrator 15.0.0, SVG Export Plug-In . SVG Version: 6.00 Build 0)  -->
<!DOCTYPE svg PUBLIC "-//W3C//DTD SVG 1.1//EN" "http://www.w3.org/Graphics/SVG/1.1/DTD/svg11.dtd">
<svg version="1.1" id="Layer_1" xmlns="http://www.w3.org/2000/svg" xmlns:xlink="http://www.w3.org/1999/xlink" x="0px" y="0px"
	 width="72px" height="72px" viewBox="0 0 72 72" enable-background="new 0 0 72 72" xml:space="preserve">
<g>
	<radialGradient id="SVGID_1_" cx="23.541" cy="24.6934" r="34.5195" gradientUnits="userSpaceOnUse">
		<stop  offset="0.2292" style="stop-color:#36A9E1"/>
		<stop  offset="0.616" style="stop-color:#2787C8"/>
		<stop  offset="0.9234" style="stop-color:#1D71B8"/>
	</radialGradient>
	<path fill="url(#SVGID_1_)" d="M3.999,70.5c-1.378,0-2.5-1.17-2.5-2.608V3.983c0-1.438,1.122-2.609,2.5-2.609H68
		c1.379,0,2.5,1.17,2.5,2.609v63.909c0,1.438-1.121,2.608-2.5,2.608H3.999z"/>
	<g>
		<path fill="#29235C" d="M68,2.874c0.552,0,1,0.498,1,1.109v63.909C69,68.503,68.552,69,68,69H3.999c-0.551,0-1-0.497-1-1.108
			V3.983c0-0.611,0.449-1.109,1-1.109H68 M68-0.126H3.999c-2.209,0-4,1.84-4,4.109v63.909c0,2.271,1.791,4.108,4,4.108H68
			c2.209,0,4-1.838,4-4.108V3.983C72,1.714,70.209-0.126,68-0.126L68-0.126z"/>
	</g>
</g>
<linearGradient id="SVGID_2_" gradientUnits="userSpaceOnUse" x1="18.3662" y1="3.2422" x2="60.0459" y2="61.8343">
	<stop  offset="0" style="stop-color:#FFFFFF"/>
	<stop  offset="1" style="stop-color:#FFFFFF;stop-opacity:0"/>
</linearGradient>
<path opacity="0.7" fill="url(#SVGID_2_)" d="M0,56.188c0,0,2.667-47.104,72-39.256c0-5.847,0-17.059,0-17.059H0V56.188z"/>
<g>
	<g>
		<path fill="#FFFFFF" d="M56.728,28.21c-2.874,0-5.213-2.339-5.213-5.214s2.339-5.214,5.213-5.214s5.212,2.339,5.212,5.214
			S59.602,28.21,56.728,28.21z"/>
		<path fill="#29235C" d="M56.728,18.282c2.605,0,4.712,2.113,4.712,4.714c0,2.604-2.106,4.714-4.712,4.714
			c-2.601,0-4.713-2.109-4.713-4.714C52.015,20.396,54.127,18.282,56.728,18.282 M56.728,17.282c-3.15,0-5.713,2.563-5.713,5.714
			s2.562,5.714,5.713,5.714c3.149,0,5.712-2.563,5.712-5.714S59.877,17.282,56.728,17.282L56.728,17.282z"/>
	</g>
	<g>
		<path fill="#FFFFFF" d="M34.673,39.407c-2.875,0-5.213-2.339-5.213-5.214c0-2.874,2.339-5.212,5.213-5.212
			c2.875,0,5.214,2.338,5.214,5.212C39.887,37.068,37.548,39.407,34.673,39.407z"/>
		<path fill="#29235C" d="M34.673,29.481c2.605,0,4.714,2.113,4.714,4.712c0,2.606-2.108,4.714-4.714,4.714
			c-2.6,0-4.713-2.107-4.713-4.714C29.959,31.595,32.073,29.481,34.673,29.481 M34.673,28.481c-3.15,0-5.713,2.562-5.713,5.712
			c0,3.15,2.563,5.714,5.713,5.714s5.714-2.563,5.714-5.714C40.387,31.044,37.823,28.481,34.673,28.481L34.673,28.481z"/>
	</g>
	<g>
		<path fill="#FFFFFF" d="M22.743,61.444c-2.875,0-5.213-2.339-5.213-5.213s2.339-5.213,5.213-5.213
			c2.874,0,5.212,2.339,5.212,5.213S25.617,61.444,22.743,61.444z"/>
		<path fill="#29235C" d="M22.743,51.519c2.605,0,4.712,2.113,4.712,4.713c0,2.605-2.107,4.713-4.712,4.713
			c-2.601,0-4.713-2.107-4.713-4.713C18.029,53.632,20.142,51.519,22.743,51.519 M22.743,50.519c-3.15,0-5.713,2.562-5.713,5.713
			s2.563,5.713,5.713,5.713c3.15,0,5.712-2.562,5.712-5.713S25.893,50.519,22.743,50.519L22.743,50.519z"/>
	</g>
	<g>
		<g>
			<polygon fill="#FFFFFF" points="37.282,41.188 41.495,37.23 45.135,41.65 41.469,45.094 			"/>
			<path fill="#29235C" d="M41.448,37.96l3.003,3.646l-2.983,2.803l-3.454-3.223L41.448,37.96 M41.542,36.5l-0.778,0.731
				l-3.435,3.227l-0.779,0.731l0.781,0.729l3.454,3.223l0.685,0.639l0.683-0.642l2.983-2.803l0.683-0.641l-0.596-0.724l-3.003-3.646
				L41.542,36.5L41.542,36.5z"/>
		</g>
		<g>
			<polygon fill="#FFFFFF" points="44.193,47.63 47.499,44.521 52.642,50.766 50.108,53.143 			"/>
			<path fill="#29235C" d="M47.452,45.251l4.506,5.471l-1.851,1.736l-5.183-4.83L47.452,45.251 M47.545,43.791l-0.778,0.731
				l-2.527,2.377l-0.777,0.731l0.781,0.729l5.183,4.83l0.684,0.638l0.683-0.64l1.851-1.736l0.684-0.642l-0.597-0.724l-4.506-5.471
				L47.545,43.791L47.545,43.791z"/>
		</g>
		<g>
			<polygon fill="#FFFFFF" points="54.559,57.291 56.506,55.465 63.152,63.531 62.2,64.414 			"/>
			<path fill="#29235C" d="M56.459,56.194l6.008,7.291l-0.266,0.246l-6.91-6.441L56.459,56.194 M56.553,54.735l-0.778,0.729
				l-1.168,1.096l-0.779,0.731l0.782,0.729l6.91,6.441l0.68,0.634l0.682-0.632l0.266-0.246l0.692-0.642l-0.601-0.728l-6.008-7.291
				L56.553,54.735L56.553,54.735z"/>
		</g>
	</g>
	<g>
		<polygon fill="#FFFFFF" points="56.092,32.619 61.832,31.625 62.226,37.353 57.651,38.149 		"/>
		<path fill="#29235C" d="M61.371,32.212l0.325,4.726l-3.687,0.642l-1.286-4.562L61.371,32.212 M62.293,31.038L61.2,31.227
			l-4.647,0.805l-1.093,0.189l0.301,1.067l1.286,4.562l0.245,0.868l0.89-0.154l3.687-0.642l0.888-0.154l-0.062-0.899l-0.325-4.726
			L62.293,31.038L62.293,31.038z"/>
	</g>
	<g>
		<polygon fill="#FFFFFF" points="58.664,41.744 62.487,41.079 63.048,49.171 60.862,49.549 		"/>
		<path fill="#29235C" d="M62.026,41.667l0.491,7.088l-1.296,0.225l-1.926-6.838L62.026,41.667 M62.947,40.492l-1.092,0.189
			l-2.73,0.475l-1.092,0.189l0.3,1.067l1.926,6.838l0.245,0.868l0.889-0.154l1.296-0.225l0.889-0.154l-0.062-0.9l-0.491-7.088
			L62.947,40.492L62.947,40.492z"/>
	</g>
	<g>
		<g>
			<polygon fill="#FFFFFF" points="31.263,62.365 32.388,56.627 37.855,58.437 37.009,62.756 			"/>
			<path fill="#29235C" d="M32.77,57.28l4.511,1.492l-0.677,3.455l-4.74-0.322L32.77,57.28 M32.006,55.975l-0.218,1.113
				l-0.907,4.625l-0.218,1.113l1.132,0.077l4.74,0.322l0.88,0.06l0.169-0.865l0.678-3.455l0.169-0.865l-0.836-0.276l-4.511-1.492
				L32.006,55.975L32.006,55.975z"/>
		</g>
		<g>
			<polygon fill="#FFFFFF" points="40.745,63.005 41.408,59.605 49.133,62.159 48.86,63.551 			"/>
			<path fill="#29235C" d="M41.79,60.259l6.768,2.236l-0.104,0.527l-7.109-0.479L41.79,60.259 M41.025,58.953l-0.217,1.114
				l-0.445,2.285l-0.217,1.113l1.131,0.076l7.109,0.479l0.879,0.059l0.17-0.864l0.104-0.527l0.17-0.865l-0.838-0.276l-6.768-2.236
				L41.025,58.953L41.025,58.953z"/>
		</g>
	</g>
	<g>
		<path fill="#FFFFFF" d="M4.77,66.79v-0.5c0-33.97,27.637-61.607,61.606-61.607h0.5v5.715h-0.5
			c-30.819,0-55.893,25.073-55.893,55.893v0.5H4.77z"/>
		<path fill="#29235C" d="M66.376,5.183v4.715C35.28,9.897,9.983,35.193,9.983,66.29H5.27C5.27,32.597,32.682,5.183,66.376,5.183
			 M67.376,4.183h-1C32.13,4.183,4.27,32.044,4.27,66.29v1h1h4.714h1v-1c0-30.543,24.849-55.393,55.393-55.393h1v-1V5.183V4.183
			L67.376,4.183z"/>
	</g>
</g>
</svg>
