<?xml version="1.0" encoding="utf-8"?>
<!-- Generator: Adobe Illustrator 15.0.0, SVG Export Plug-In . SVG Version: 6.00 Build 0)  -->
<!DOCTYPE svg PUBLIC "-//W3C//DTD SVG 1.1//EN" "http://www.w3.org/Graphics/SVG/1.1/DTD/svg11.dtd">
<svg version="1.1" id="Layer_1" xmlns="http://www.w3.org/2000/svg" xmlns:xlink="http://www.w3.org/1999/xlink" x="0px" y="0px"
	 width="32px" height="32px" viewBox="0 0 32 32" enable-background="new 0 0 32 32" xml:space="preserve">
<linearGradient id="SVGID_1_" gradientUnits="userSpaceOnUse" x1="1.9614" y1="6.3555" x2="32.2502" y2="26.6968">
	<stop  offset="0" style="stop-color:#36A9E1"/>
	<stop  offset="0.0867" style="stop-color:#32A0DA"/>
	<stop  offset="0.3777" style="stop-color:#2686C7"/>
	<stop  offset="0.6402" style="stop-color:#1F76BC"/>
	<stop  offset="0.8478" style="stop-color:#1D71B8"/>
</linearGradient>
<path fill="url(#SVGID_1_)" stroke="#B2B2B2" stroke-width="0.25" stroke-miterlimit="10" d="M16,28.787
	c-7.202,0-13.062-5.859-13.062-13.062C2.938,8.523,8.798,2.664,16,2.664v3c-5.548,0-10.062,4.514-10.062,10.062
	c0,5.548,4.514,10.062,10.062,10.062c5.549,0,10.062-4.514,10.062-10.062c0-2.911-1.261-5.677-3.458-7.591l1.971-2.263
	c2.852,2.483,4.487,6.075,4.487,9.854C29.062,22.928,23.203,28.787,16,28.787z"/>
<linearGradient id="SVGID_2_" gradientUnits="userSpaceOnUse" x1="13.0498" y1="13.8262" x2="19.4599" y2="17.9522">
	<stop  offset="0" style="stop-color:#36A9E1"/>
	<stop  offset="0.0867" style="stop-color:#32A0DA"/>
	<stop  offset="0.3777" style="stop-color:#2686C7"/>
	<stop  offset="0.6402" style="stop-color:#1F76BC"/>
	<stop  offset="0.8478" style="stop-color:#1D71B8"/>
</linearGradient>
<circle fill="url(#SVGID_2_)" stroke="#B2B2B2" stroke-width="0.25" stroke-miterlimit="10" cx="16" cy="15.726" r="1.833"/>
</svg>
