<?xml version="1.0" encoding="utf-8"?>
<!-- Generator: Adobe Illustrator 15.0.0, SVG Export Plug-In . SVG Version: 6.00 Build 0)  -->
<!DOCTYPE svg PUBLIC "-//W3C//DTD SVG 1.1//EN" "http://www.w3.org/Graphics/SVG/1.1/DTD/svg11.dtd">
<svg version="1.1" id="Layer_1" xmlns="http://www.w3.org/2000/svg" xmlns:xlink="http://www.w3.org/1999/xlink" x="0px" y="0px"
	 width="32px" height="32px" viewBox="0 0 32 32" enable-background="new 0 0 32 32" xml:space="preserve">
<linearGradient id="SVGID_1_" gradientUnits="userSpaceOnUse" x1="23.8945" y1="0.2573" x2="31.3575" y2="7.7736">
	<stop  offset="0" style="stop-color:#36A9E1"/>
	<stop  offset="0.0867" style="stop-color:#32A0DA"/>
	<stop  offset="0.3777" style="stop-color:#2686C7"/>
	<stop  offset="0.6402" style="stop-color:#1F76BC"/>
	<stop  offset="0.8478" style="stop-color:#1D71B8"/>
</linearGradient>
<circle fill="url(#SVGID_1_)" stroke="#B2B2B2" stroke-width="0.25" stroke-miterlimit="10" cx="27.538" cy="3.927" r="2.531"/>
<g>
	<linearGradient id="SVGID_2_" gradientUnits="userSpaceOnUse" x1="5.6919" y1="10.2783" x2="21.8159" y2="27.9576">
		<stop  offset="0" style="stop-color:#36A9E1"/>
		<stop  offset="0.0867" style="stop-color:#32A0DA"/>
		<stop  offset="0.3777" style="stop-color:#2686C7"/>
		<stop  offset="0.6402" style="stop-color:#1F76BC"/>
		<stop  offset="0.8478" style="stop-color:#1D71B8"/>
	</linearGradient>
	<path fill="url(#SVGID_2_)" d="M3.418,30.66c-0.508,0-1-0.185-1.383-0.521c-0.422-0.369-0.675-0.881-0.712-1.441
		s0.146-1.102,0.515-1.523c0.06-0.068,0.132-0.14,0.198-0.197L16.66,14.171l-3.775-3.775L24.7,7.231l-3.166,11.814l-3.729-3.728
		L5.001,29.942C4.602,30.398,4.025,30.66,3.418,30.66z"/>
	<g>
		<path fill="#B2B2B2" d="M24.523,7.408L21.47,18.804l-3.67-3.669L4.907,29.86c-0.392,0.447-0.939,0.675-1.489,0.675
			c-0.462,0-0.926-0.161-1.3-0.489c-0.821-0.719-0.904-1.968-0.186-2.789c0.056-0.063,0.123-0.131,0.186-0.185l14.725-12.895
			l-3.716-3.716L24.523,7.408 M24.877,7.054l-0.418,0.112l-11.397,3.053l-0.418,0.112l0.306,0.306l3.527,3.527L1.954,26.884
			c-0.069,0.06-0.146,0.136-0.209,0.208c-0.392,0.448-0.585,1.021-0.546,1.614c0.04,0.594,0.308,1.137,0.755,1.528
			c0.406,0.355,0.926,0.551,1.465,0.551c0.642,0,1.253-0.277,1.677-0.76L17.812,15.5l3.481,3.48l0.307,0.307l0.111-0.419
			l3.054-11.396L24.877,7.054L24.877,7.054z"/>
	</g>
</g>
</svg>
