<?xml version="1.0" encoding="utf-8"?>
<!-- Generator: Adobe Illustrator 15.0.0, SVG Export Plug-In . SVG Version: 6.00 Build 0)  -->
<!DOCTYPE svg PUBLIC "-//W3C//DTD SVG 1.1//EN" "http://www.w3.org/Graphics/SVG/1.1/DTD/svg11.dtd">
<svg version="1.1" id="Layer_1" xmlns="http://www.w3.org/2000/svg" xmlns:xlink="http://www.w3.org/1999/xlink" x="0px" y="0px"
	 width="32px" height="32px" viewBox="0 0 32 32" enable-background="new 0 0 32 32" xml:space="preserve">
<g>
	<linearGradient id="SVGID_1_" gradientUnits="userSpaceOnUse" x1="7.5884" y1="5.9829" x2="26.1751" y2="26.3624">
		<stop  offset="0" style="stop-color:#36A9E1"/>
		<stop  offset="0.0867" style="stop-color:#32A0DA"/>
		<stop  offset="0.3777" style="stop-color:#2686C7"/>
		<stop  offset="0.6402" style="stop-color:#1F76BC"/>
		<stop  offset="0.8478" style="stop-color:#1D71B8"/>
	</linearGradient>
	<path fill="url(#SVGID_1_)" d="M4.921,29.52c-0.584,0-1.149-0.213-1.589-0.599c-1.001-0.877-1.103-2.405-0.227-3.406
		c0.068-0.078,0.15-0.159,0.227-0.226L20.287,10.44l-4.362-4.363l13.618-3.648l-3.648,13.619l-4.309-4.31L6.739,28.694
		C6.28,29.219,5.618,29.52,4.921,29.52z"/>
	<g>
		<path fill="#B2B2B2" d="M29.367,2.605l-3.537,13.2l-4.25-4.25L6.645,28.612c-0.453,0.518-1.087,0.782-1.724,0.782
			c-0.535,0-1.073-0.188-1.507-0.567c-0.951-0.833-1.047-2.279-0.215-3.23c0.064-0.074,0.143-0.15,0.215-0.214l17.056-14.937
			l-4.304-4.304L29.367,2.605 M29.721,2.252l-0.418,0.112L16.102,5.9l-0.418,0.112l0.306,0.306l4.116,4.115L3.25,25.194
			c-0.081,0.071-0.167,0.156-0.239,0.238c-0.921,1.053-0.814,2.66,0.239,3.583c0.463,0.405,1.057,0.629,1.671,0.629
			c0.732,0,1.429-0.316,1.912-0.867l14.759-16.856l4.061,4.062l0.307,0.306l0.111-0.418l3.537-13.2L29.721,2.252L29.721,2.252z"/>
	</g>
</g>
</svg>
