<?xml version="1.0" encoding="utf-8"?>
<!-- Generator: Adobe Illustrator 15.0.0, SVG Export Plug-In . SVG Version: 6.00 Build 0)  -->
<!DOCTYPE svg PUBLIC "-//W3C//DTD SVG 1.1//EN" "http://www.w3.org/Graphics/SVG/1.1/DTD/svg11.dtd">
<svg version="1.1" id="Layer_1" xmlns="http://www.w3.org/2000/svg" xmlns:xlink="http://www.w3.org/1999/xlink" x="0px" y="0px"
	 width="32px" height="32px" viewBox="0 0 32 32" enable-background="new 0 0 32 32" xml:space="preserve">
<path fill="none" stroke="#B2B2B2" stroke-linejoin="round" stroke-miterlimit="10" d="M4.463,20.832c0,0,9.745-3.092,23.298,0"/>
<path fill="none" stroke="#B2B2B2" stroke-linejoin="round" stroke-miterlimit="10" d="M27.761,11.796c0,0-9.745,3.091-23.298,0"/>
<path fill="none" stroke="#B2B2B2" stroke-linejoin="round" stroke-miterlimit="10" d="M20.938,27.512c0,0-3.091-9.631,0-23.023"/>
<path fill="none" stroke="#B2B2B2" stroke-linejoin="round" stroke-miterlimit="10" d="M11.681,4.488c0,0,3.091,9.63,0,23.022"/>
<linearGradient id="SVGID_1_" gradientUnits="userSpaceOnUse" x1="3.0059" y1="16" x2="28.9941" y2="16">
	<stop  offset="0" style="stop-color:#36A9E1"/>
	<stop  offset="0.0867" style="stop-color:#32A0DA"/>
	<stop  offset="0.3777" style="stop-color:#2686C7"/>
	<stop  offset="0.6402" style="stop-color:#1F76BC"/>
	<stop  offset="0.8478" style="stop-color:#1D71B8"/>
</linearGradient>
<path fill="url(#SVGID_1_)" stroke="#B2B2B2" stroke-width="0.25" stroke-miterlimit="10" d="M16,3.006
	C8.835,3.006,3.006,8.835,3.006,16c0,7.166,5.829,12.994,12.994,12.994S28.994,23.166,28.994,16C28.994,8.835,23.165,3.006,16,3.006
	z M27.14,20.42c-1.34,0.543-2.656,0.965-3.939,1.289c0.84-4.424,0.572-8.375,0.014-11.396c1.281,0.323,2.595,0.745,3.934,1.289
	c0.54,1.364,0.847,2.845,0.847,4.398C27.994,17.562,27.686,19.051,27.14,20.42z M10.013,10.009
	c3.107-0.627,7.356-0.966,12.146,0.057c0.611,3.06,0.942,7.209-0.023,11.889c-4.786,1.018-9.036,0.674-12.142,0.047
	C9.372,18.928,9.03,14.737,10.013,10.009z M26.547,10.294c-1.207-0.443-2.394-0.793-3.553-1.065
	c-0.342-1.541-0.737-2.776-1.052-3.633C23.878,6.706,25.481,8.332,26.547,10.294z M20.602,4.927
	c0.237,0.539,0.821,1.975,1.321,4.068c-4.541-0.896-8.593-0.616-11.671-0.042c0.327-1.33,0.765-2.699,1.33-4.094
	C12.951,4.315,14.439,4.006,16,4.006C17.63,4.006,19.184,4.336,20.602,4.927z M10.272,5.465c-0.463,1.262-0.821,2.5-1.099,3.709
	C7.584,9.53,6.323,9.942,5.473,10.26C6.579,8.239,8.25,6.569,10.272,5.465z M4.858,11.585c0.475-0.212,1.927-0.819,4.089-1.34
	c-0.858,4.481-0.578,8.479-0.008,11.522c-2.147-0.518-3.593-1.117-4.073-1.332c-0.55-1.375-0.86-2.867-0.86-4.435
	C4.006,14.441,4.314,12.954,4.858,11.585z M5.486,21.764c0.847,0.316,2.096,0.725,3.673,1.076c0.353,1.576,0.761,2.826,1.077,3.674
	C8.238,25.414,6.586,23.762,5.486,21.764z M11.563,27.135c-0.217-0.484-0.817-1.928-1.334-4.072
	c1.665,0.312,3.616,0.537,5.777,0.537c1.828,0,3.808-0.168,5.887-0.576c-0.323,1.318-0.756,2.676-1.312,4.059
	c-1.413,0.586-2.959,0.912-4.581,0.912C14.432,27.994,12.938,27.684,11.563,27.135z M21.903,26.428
	c0.449-1.236,0.799-2.449,1.069-3.633c1.163-0.273,2.356-0.633,3.569-1.078C25.468,23.689,23.853,25.32,21.903,26.428z"/>
</svg>
