<?xml version="1.0" encoding="utf-8"?>
<!-- Generator: Adobe Illustrator 15.0.0, SVG Export Plug-In . SVG Version: 6.00 Build 0)  -->
<!DOCTYPE svg PUBLIC "-//W3C//DTD SVG 1.1//EN" "http://www.w3.org/Graphics/SVG/1.1/DTD/svg11.dtd">
<svg version="1.1" id="Layer_1" xmlns="http://www.w3.org/2000/svg" xmlns:xlink="http://www.w3.org/1999/xlink" x="0px" y="0px"
	 width="72px" height="72px" viewBox="0 0 72 72" enable-background="new 0 0 72 72" xml:space="preserve">
<g>
	<radialGradient id="SVGID_1_" cx="23.541" cy="24.7305" r="34.4553" gradientUnits="userSpaceOnUse">
		<stop  offset="0.2292" style="stop-color:#9D9D9C"/>
		<stop  offset="0.671" style="stop-color:#6D6D6C"/>
		<stop  offset="0.9234" style="stop-color:#575756"/>
	</radialGradient>
	<path fill="url(#SVGID_1_)" d="M3.999,70.362c-1.378,0-2.5-1.163-2.5-2.594V4.094c0-1.43,1.122-2.594,2.5-2.594H68
		c1.379,0,2.5,1.164,2.5,2.594v63.675c0,1.431-1.121,2.594-2.5,2.594H3.999z"/>
	<g>
		<path fill="#1D1D1B" d="M68,3c0.552,0,1,0.491,1,1.094v63.675c0,0.604-0.448,1.094-1,1.094H3.999c-0.551,0-1-0.49-1-1.094V4.094
			c0-0.603,0.449-1.094,1-1.094H68 M68,0H3.999c-2.209,0-4,1.833-4,4.094v63.675c0,2.262,1.791,4.094,4,4.094H68
			c2.209,0,4-1.832,4-4.094V4.094C72,1.833,70.209,0,68,0L68,0z"/>
	</g>
</g>
<linearGradient id="SVGID_2_" gradientUnits="userSpaceOnUse" x1="18.3384" y1="3.3984" x2="60.043" y2="62.0255">
	<stop  offset="0" style="stop-color:#FFFFFF"/>
	<stop  offset="1" style="stop-color:#FFFFFF;stop-opacity:0"/>
</linearGradient>
<path opacity="0.7" fill="url(#SVGID_2_)" d="M0,56.452c0,0,2.667-47.219,72-39.352C72,11.239,72,0,72,0H0V56.452z"/>
<g>
	<g>
		<path fill="#FFFFFF" d="M56.728,28.478c-2.874,0-5.213-2.339-5.213-5.214s2.339-5.214,5.213-5.214s5.212,2.339,5.212,5.214
			S59.602,28.478,56.728,28.478z"/>
		<path fill="#1D1D1B" d="M56.728,18.55c2.605,0,4.712,2.113,4.712,4.714c0,2.604-2.106,4.714-4.712,4.714
			c-2.601,0-4.713-2.109-4.713-4.714C52.015,20.663,54.127,18.55,56.728,18.55 M56.728,17.55c-3.15,0-5.713,2.563-5.713,5.714
			s2.562,5.714,5.713,5.714c3.149,0,5.712-2.563,5.712-5.714S59.877,17.55,56.728,17.55L56.728,17.55z"/>
	</g>
	<g>
		<path fill="#FFFFFF" d="M34.673,39.675c-2.875,0-5.213-2.339-5.213-5.214c0-2.874,2.339-5.212,5.213-5.212
			c2.875,0,5.214,2.338,5.214,5.212C39.887,37.336,37.548,39.675,34.673,39.675z"/>
		<path fill="#1D1D1B" d="M34.673,29.749c2.605,0,4.714,2.113,4.714,4.712c0,2.606-2.108,4.714-4.714,4.714
			c-2.6,0-4.713-2.107-4.713-4.714C29.959,31.862,32.073,29.749,34.673,29.749 M34.673,28.749c-3.15,0-5.713,2.562-5.713,5.712
			c0,3.15,2.563,5.714,5.713,5.714s5.714-2.563,5.714-5.714C40.387,31.312,37.823,28.749,34.673,28.749L34.673,28.749z"/>
	</g>
	<g>
		<path fill="#FFFFFF" d="M22.743,61.712c-2.875,0-5.213-2.339-5.213-5.213s2.339-5.213,5.213-5.213
			c2.874,0,5.212,2.339,5.212,5.213S25.617,61.712,22.743,61.712z"/>
		<path fill="#1D1D1B" d="M22.743,51.786c2.605,0,4.712,2.113,4.712,4.713c0,2.605-2.107,4.713-4.712,4.713
			c-2.601,0-4.713-2.107-4.713-4.713C18.029,53.899,20.142,51.786,22.743,51.786 M22.743,50.786c-3.15,0-5.713,2.562-5.713,5.713
			s2.563,5.713,5.713,5.713c3.15,0,5.712-2.562,5.712-5.713S25.893,50.786,22.743,50.786L22.743,50.786z"/>
	</g>
	<g>
		<g>
			<polygon fill="#FFFFFF" points="37.282,41.455 41.495,37.498 45.135,41.918 41.469,45.361 			"/>
			<path fill="#1D1D1B" d="M41.448,38.228l3.003,3.646l-2.983,2.803l-3.454-3.223L41.448,38.228 M41.542,36.768l-0.778,0.731
				l-3.435,3.227l-0.779,0.731l0.781,0.729l3.454,3.223l0.685,0.639l0.683-0.642l2.983-2.803l0.683-0.641l-0.596-0.724l-3.003-3.646
				L41.542,36.768L41.542,36.768z"/>
		</g>
		<g>
			<polygon fill="#FFFFFF" points="44.193,47.897 47.499,44.788 52.642,51.033 50.108,53.41 			"/>
			<path fill="#1D1D1B" d="M47.452,45.519l4.506,5.471l-1.851,1.736l-5.183-4.83L47.452,45.519 M47.545,44.059l-0.778,0.731
				l-2.527,2.377l-0.777,0.731l0.781,0.729l5.183,4.83l0.684,0.638l0.683-0.64l1.851-1.736l0.684-0.642l-0.597-0.724l-4.506-5.471
				L47.545,44.059L47.545,44.059z"/>
		</g>
		<g>
			<polygon fill="#FFFFFF" points="54.559,57.559 56.506,55.732 63.152,63.799 62.2,64.682 			"/>
			<path fill="#1D1D1B" d="M56.459,56.462l6.008,7.291l-0.266,0.246l-6.91-6.441L56.459,56.462 M56.553,55.003l-0.778,0.729
				l-1.168,1.096l-0.779,0.731l0.782,0.729l6.91,6.441l0.68,0.634l0.682-0.632l0.266-0.246l0.692-0.642l-0.601-0.728l-6.008-7.291
				L56.553,55.003L56.553,55.003z"/>
		</g>
	</g>
	<g>
		<polygon fill="#FFFFFF" points="56.092,32.886 61.832,31.892 62.226,37.62 57.651,38.417 		"/>
		<path fill="#1D1D1B" d="M61.371,32.479l0.325,4.726l-3.687,0.642l-1.286-4.562L61.371,32.479 M62.293,31.305L61.2,31.494
			l-4.647,0.805l-1.093,0.189l0.301,1.067l1.286,4.562l0.245,0.868l0.89-0.154l3.687-0.642l0.888-0.154l-0.062-0.899l-0.325-4.726
			L62.293,31.305L62.293,31.305z"/>
	</g>
	<g>
		<polygon fill="#FFFFFF" points="58.664,42.012 62.487,41.347 63.048,49.438 60.862,49.816 		"/>
		<path fill="#1D1D1B" d="M62.026,41.935l0.491,7.088l-1.296,0.225l-1.926-6.838L62.026,41.935 M62.947,40.76l-1.092,0.189
			l-2.73,0.475l-1.092,0.189l0.3,1.067l1.926,6.838l0.245,0.868l0.889-0.154l1.296-0.225l0.889-0.154l-0.062-0.9l-0.491-7.088
			L62.947,40.76L62.947,40.76z"/>
	</g>
	<g>
		<g>
			<polygon fill="#FFFFFF" points="31.263,62.633 32.388,56.895 37.855,58.704 37.009,63.023 			"/>
			<path fill="#1D1D1B" d="M32.77,57.548l4.511,1.492l-0.677,3.455l-4.74-0.322L32.77,57.548 M32.006,56.242l-0.218,1.113
				l-0.907,4.625l-0.218,1.113l1.132,0.077l4.74,0.322l0.88,0.06l0.169-0.865l0.678-3.455l0.169-0.865l-0.836-0.276l-4.511-1.492
				L32.006,56.242L32.006,56.242z"/>
		</g>
		<g>
			<polygon fill="#FFFFFF" points="40.745,63.272 41.408,59.873 49.133,62.427 48.86,63.818 			"/>
			<path fill="#1D1D1B" d="M41.79,60.526l6.768,2.236l-0.104,0.527l-7.109-0.479L41.79,60.526 M41.025,59.221l-0.217,1.114
				l-0.445,2.285l-0.217,1.113l1.131,0.076l7.109,0.479l0.879,0.059l0.17-0.864l0.104-0.527l0.17-0.865l-0.838-0.276l-6.768-2.236
				L41.025,59.221L41.025,59.221z"/>
		</g>
	</g>
	<g>
		<path fill="#FFFFFF" d="M4.77,67.058v-0.5c0-33.97,27.637-61.607,61.606-61.607h0.5v5.715h-0.5
			c-30.819,0-55.893,25.073-55.893,55.893v0.5H4.77z"/>
		<path fill="#1D1D1B" d="M66.376,5.45v4.715c-31.096,0-56.393,25.296-56.393,56.393H5.27C5.27,32.864,32.682,5.45,66.376,5.45
			 M67.376,4.45h-1C32.13,4.45,4.27,32.312,4.27,66.558v1h1h4.714h1v-1c0-30.543,24.849-55.393,55.393-55.393h1v-1V5.45V4.45
			L67.376,4.45z"/>
	</g>
</g>
</svg>
