<?xml version="1.0" encoding="utf-8"?>
<!-- Generator: Adobe Illustrator 15.0.0, SVG Export Plug-In . SVG Version: 6.00 Build 0)  -->
<!DOCTYPE svg PUBLIC "-//W3C//DTD SVG 1.1//EN" "http://www.w3.org/Graphics/SVG/1.1/DTD/svg11.dtd">
<svg version="1.1" id="Layer_1" xmlns="http://www.w3.org/2000/svg" xmlns:xlink="http://www.w3.org/1999/xlink" x="0px" y="0px"
	 width="32px" height="32px" viewBox="0 0 32 32" enable-background="new 0 0 32 32" xml:space="preserve">
<path fill="none" stroke="#B2B2B2" stroke-linejoin="round" stroke-miterlimit="10" d="M4.087,20.83c0,0,9.745-3.09,23.298,0"/>
<path fill="none" stroke="#B2B2B2" stroke-linejoin="round" stroke-miterlimit="10" d="M27.385,11.795c0,0-9.745,3.091-23.298,0"/>
<path fill="none" stroke="#B2B2B2" stroke-linejoin="round" stroke-miterlimit="10" d="M20.562,27.51c0,0-3.091-9.629,0-23.022"/>
<path fill="none" stroke="#B2B2B2" stroke-linejoin="round" stroke-miterlimit="10" d="M11.305,4.487c0,0,3.091,9.63,0,23.023"/>
<linearGradient id="SVGID_1_" gradientUnits="userSpaceOnUse" x1="6.75" y1="9.9526" x2="28.2198" y2="24.5824">
	<stop  offset="0" style="stop-color:#9D9D9C"/>
	<stop  offset="0.1828" style="stop-color:#868685"/>
	<stop  offset="0.437" style="stop-color:#6C6C6B"/>
	<stop  offset="0.6664" style="stop-color:#5C5C5B"/>
	<stop  offset="0.8478" style="stop-color:#575756"/>
</linearGradient>
<path fill="url(#SVGID_1_)" stroke="#B2B2B2" stroke-width="0.25" stroke-miterlimit="10" d="M15.624,3.005
	C8.459,3.005,2.63,8.834,2.63,16c0,7.165,5.829,12.995,12.994,12.995S28.618,23.164,28.618,16
	C28.618,8.834,22.789,3.005,15.624,3.005z M26.764,20.418c-1.34,0.545-2.656,0.967-3.939,1.289c0.84-4.424,0.572-8.374,0.014-11.395
	c1.281,0.323,2.595,0.745,3.934,1.289c0.54,1.364,0.847,2.845,0.847,4.398C27.618,17.561,27.31,19.049,26.764,20.418z M9.637,10.008
	c3.107-0.627,7.356-0.966,12.146,0.057c0.611,3.06,0.942,7.21-0.023,11.89C16.973,22.971,12.723,22.629,9.617,22
	C8.996,18.928,8.654,14.736,9.637,10.008z M26.171,10.293C24.964,9.85,23.777,9.5,22.618,9.228
	c-0.342-1.541-0.737-2.776-1.052-3.633C23.502,6.705,25.105,8.331,26.171,10.293z M20.226,4.926
	c0.237,0.539,0.821,1.975,1.321,4.068c-4.541-0.896-8.593-0.616-11.671-0.042c0.327-1.33,0.765-2.699,1.33-4.094
	c1.369-0.545,2.857-0.854,4.418-0.854C17.254,4.005,18.808,4.335,20.226,4.926z M9.896,5.464c-0.463,1.262-0.821,2.5-1.099,3.709
	c-1.59,0.355-2.851,0.768-3.701,1.086C6.203,8.238,7.874,6.568,9.896,5.464z M4.482,11.584c0.475-0.212,1.927-0.819,4.089-1.34
	c-0.858,4.481-0.578,8.48-0.008,11.521c-2.147-0.516-3.593-1.117-4.073-1.332C3.94,19.061,3.63,17.566,3.63,16
	C3.63,14.44,3.938,12.953,4.482,11.584z M5.11,21.762c0.847,0.316,2.096,0.725,3.673,1.078c0.353,1.574,0.761,2.824,1.077,3.672
	C7.862,25.412,6.21,23.76,5.11,21.762z M11.188,27.133c-0.217-0.482-0.817-1.928-1.334-4.072c1.665,0.312,3.616,0.539,5.777,0.539
	c1.828,0,3.808-0.17,5.887-0.578c-0.323,1.32-0.756,2.676-1.312,4.059c-1.413,0.586-2.959,0.914-4.581,0.914
	C14.056,27.994,12.562,27.684,11.188,27.133z M21.527,26.428c0.449-1.236,0.799-2.449,1.069-3.635
	c1.163-0.271,2.356-0.631,3.569-1.076C25.092,23.688,23.477,25.32,21.527,26.428z"/>
</svg>
